<?xml version="1.0" encoding="UTF-8" standalone="no"?>
<!-- Created with Inkscape (http://www.inkscape.org/) -->

<svg
   width="330.34665mm"
   height="60.955215mm"
   viewBox="0 0 330.34665 60.955215"
   version="1.1"
   id="svg5"
   xml:space="preserve"
   xmlns:inkscape="http://www.inkscape.org/namespaces/inkscape"
   xmlns:sodipodi="http://sodipodi.sourceforge.net/DTD/sodipodi-0.dtd"
   xmlns:xlink="http://www.w3.org/1999/xlink"
   xmlns="http://www.w3.org/2000/svg"
   xmlns:svg="http://www.w3.org/2000/svg"><sodipodi:namedview
     id="namedview7"
     pagecolor="#505050"
     bordercolor="#ffffff"
     borderopacity="1"
     inkscape:showpageshadow="0"
     inkscape:pageopacity="0"
     inkscape:pagecheckerboard="1"
     inkscape:deskcolor="#505050"
     inkscape:document-units="mm"
     showgrid="false" /><defs
     id="defs2" /><g
     inkscape:label="Layer 1"
     inkscape:groupmode="layer"
     id="layer1"
     transform="translate(-10.981858,-22.514193)"><text
       xml:space="preserve"
       style="font-size:3.52777px;font-family:Georgia;-inkscape-font-specification:'Georgia, Normal';fill:#bae0b3;stroke:#4a9c71;stroke-width:1.59411;stroke-linecap:round;paint-order:stroke fill markers"
       x="86.609512"
       y="68.023773"
       id="text236"><tspan
         sodipodi:role="line"
         id="tspan234"
         style="font-style:normal;font-variant:normal;font-weight:normal;font-stretch:normal;font-size:42.3333px;font-family:Luminari;-inkscape-font-specification:'Luminari, Normal';font-variant-ligatures:normal;font-variant-caps:normal;font-variant-numeric:normal;font-variant-east-asian:normal;fill:#000000;fill-opacity:1;stroke:none;stroke-width:1.59411;stroke-opacity:1"
         x="86.609512"
         y="68.023773">Default Logo</tspan></text><circle
       id="path1378"
       style="fill:#7492c7;stroke:#002f75;stroke-width:0.264583"
       cx="23.789736"
       cy="62.076347"
       r="0.03728902" /><circle
       id="path1380"
       style="fill:#7492c7;stroke:#002f75;stroke-width:0.264583"
       cx="11.151439"
       cy="65.793495"
       r="0.03728902" /><circle
       id="path1382"
       style="fill:#7492c7;stroke:#002f75;stroke-width:0.264583"
       cx="57.244053"
       cy="31.595745"
       r="0.03728902" /><g
       id="g3390"
       transform="matrix(0.00786316,0,0,0.00786316,18.356764,22.514193)"><path
         id="a"
         fill="#000000"
         d="m 3430.5767,0 c -260,709 -525,1447 -1092,2012 176,-58 484,-110 682,-105 v 2982 l -842,125 c -30,-3 -40,-50 -40,-114 -81,-926 -300,-1704 -552,-2509 -18,-110 -337,-530 -91,-456 30,4 359,138 307,74 -448,-464 -1103,-798 -1739,-897 -56,-14 -89,14 -39,79 844,1299 1550,2832 1544,4651 328,0 1123,-194 1452,-194 v 2104 h 415 l 95,-5876 z" /><use
         xlink:href="#a"
         transform="matrix(-1,0,0,1,6861.1533,0)"
         id="use3380" /></g></g></svg>
